# xmcd CD database file
#
# Track frame offsets:
#	150
#	31299
#	48478
#	72084
#	88766
#	105583
#	116745
#	156185
#	175079
#	190387
#	207598
#	222895
#
# Disc length: 3192 seconds
#
# Revision: 0
# Processed by: cddbd v1.5.2PL0 Copyright (c) Steve Scherf et al.
# Submitted via: CDex 1.51
#
DISCID=ab0c760c
DTITLE=JAMES SOLBERG - See that my grave is kept clean
DYEAR=1995
DGENRE=Blues
TTITLE0=Bad Love
TTITLE1=Cry For Me Baby
TTITLE2=SeeThat My Grave Is Kept Clean
TTITLE3=Ain't Nobody's Business
TTITLE4=Snatch it Back Ond Hold It
TTITLE5=Somebody Give me A Guitar
TTITLE6=St. James Infirmary Blues
TTITLE7=Man Of Many Words
TTITLE8=Everything's Gonna Be Alright
TTITLE9=Jimmy's Blues
TTITLE10=Baby, When Ya Comin' Back
TTITLE11=Let's Straighten It Out
EXTD=YEAR: 1995
EXTT0=
EXTT1=
EXTT2=
EXTT3=
EXTT4=
EXTT5=
EXTT6=
EXTT7=
EXTT8=
EXTT9=
EXTT10=
EXTT11=
PLAYORDER=
